:SAMPLES-PER-SECOND 24
:FULLY-SPECIFIED
:DEGREES
297
root  0.504683 39.4727 24.5851 5.96638 -64.8329 0.745758
RightUpLeg  -7.60663 6.28608 -8.06237
RightLeg  24.2064 -1.56374 -1.00512
RightFoot  -15.4443 0.186014 8.19623
RightToes  -2.08645e-008 3.77894e-005 6.81332e-007
Spine  -3.05346 1.74952 0.00875166
Spine1  6.14854 1.97986 -0.953951
HEad  -32.8589 39.7255 -18.1503
LeftShoulder1  6.42796 -12.2799 -34.7101
LeftArm  5.95016 20.0034 -28.2979
LeftForeArm  166.903 -66.7863 -156.855
LeftHand  -0.189512 -2.78465 2.90299
RightShoulder  3.9914 6.86262 32.6171
RightArm  19.7312 -31.4226 24.8687
RightForeArm  150.208 75.4606 139.431
RightHand  -0.212178 7.33973 -2.27912
LeftUpLeg  -13.2775 -6.30012 12.2397
LeftLeg  21.1343 5.34505 2.59615
LeftFoot  -4.11844 1.0802 -16.496
LeftToes  1.24767e-006 1.47042e-008 1.32732e-009
298
root  0.701174 38.5297 24.8866 5.729 -63.7792 0.616226
RightUpLeg  -7.72422 6.76724 -7.81049
RightLeg  27.0829 -5.66636 -3.36435
RightFoot  -20.7564 0.400818 6.50577
RightToes  -2.08645e-008 3.77894e-005 6.81332e-007
Spine  -2.21068 2.00352 1.89996
Spine1  6.85006 2.70493 -3.16246
HEad  -34.9214 37.4839 -18.3105
LeftShoulder1  6.82158 -12.6495 -36.1814
LeftArm  7.00676 11.3364 -24.9689
LeftForeArm  161.907 -71.4226 -149.976
LeftHand  -0.364866 -3.05528 5.24726
RightShoulder  3.92799 6.76991 32.3458
RightArm  18.0424 -26.8979 24.8654
RightForeArm  133.002 78.9485 120.207
RightHand  -0.375092 8.14148 -3.59932
LeftUpLeg  -14.6457 -6.93551 11.6108
LeftLeg  25.1528 6.10754 3.46479
LeftFoot  -11.1748 0.0934928 -14.7577
LeftToes  1.24767e-006 1.47042e-008 1.32732e-009
299
root  0.855734 38.2211 25.2685 5.76614 -61.7536 0.0868378
RightUpLeg  -7.04367 6.27808 -7.71513
RightLeg  28.2087 -7.14698 -4.36399
RightFoot  -22.4193 0.595738 7.66321
RightToes  -2.08645e-008 3.77894e-005 6.81332e-007
Spine  -2.04954 1.75998 3.28089
Spine1  8.1591 2.6625 -4.15018
HEad  -36.4569 35.8244 -18.5382
LeftShoulder1  7.33219 -13.1301 -37.9714
LeftArm  6.74445 7.78706 -24.4829
LeftForeArm  154.171 -75.8256 -139.142
LeftHand  -0.474237 -2.99197 6.80599
RightShoulder  3.93429 6.74117 32.5159
RightArm  14.6998 -24.9164 25.4167
RightForeArm  104.973 80.5943 89.9207
RightHand  -0.631456 8.49497 -5.63794
LeftUpLeg  -15.5987 -9.31159 11.0712
LeftLeg  27.1931 7.14493 4.31068
LeftFoot  -13.603 -0.183123 -13.2769
LeftToes  1.24767e-006 1.47042e-008 1.32732e-009
300
root  0.832165 38.7043 25.7152 5.69743 -60.3709 0.163025
RightUpLeg  -6.69762 6.03067 -8.05014
RightLeg  28.1644 -7.44742 -4.53043
RightFoot  -18.862 0.517335 9.80072
RightToes  -2.08645e-008 3.77894e-005 6.81332e-007
Spine  -2.57732 1.74816 2.73629
Spine1  8.66354 2.34732 -2.82019
HEad  -36.0497 35.2994 -18.6089
LeftShoulder1  7.43353 -13.2279 -38.3085
LeftArm  5.67592 13.2979 -27.7808
LeftForeArm  152.96 -75.728 -139.245
LeftHand  -0.467676 -2.73425 6.90816
RightShoulder  3.9335 6.70263 32.654
RightArm  12.4423 -28.1985 25.5073
RightForeArm  108.679 80.4007 96.6239
RightHand  -0.734231 7.26475 -7.07356
LeftUpLeg  -15.0301 -9.85828 10.4071
LeftLeg  25.5335 6.53676 3.73114
LeftFoot  -10.8396 0.122473 -13.1606
LeftToes  1.24767e-006 1.47042e-008 1.32732e-009
301
root  0.701555 39.6114 26.1566 6.166 -59.628 0.530136
RightUpLeg  -7.50866 4.56675 -8.49596
RightLeg  27.744 -8.20784 -4.88427
RightFoot  -11.7475 -0.0335239 9.46794
RightToes  -2.08645e-008 3.77894e-005 6.81332e-007
Spine  -4.01166 1.63643 2.27017
Spine1  8.46616 2.02367 -1.83054
HEad  -33.7984 36.3577 -17.7386
LeftShoulder1  7.21144 -12.9835 -37.6475
LeftArm  4.62848 22.8506 -30.8269
LeftForeArm  156.722 -72.4037 -147.632
LeftHand  -0.424597 -2.46871 6.48648
RightShoulder  3.98714 6.74333 33.0243
RightArm  12.2692 -32.9364 25.4661
RightForeArm  128.363 78.9623 119.26
RightHand  -0.644606 7.18181 -6.28829
LeftUpLeg  -13.7607 -7.40598 9.96819
LeftLeg  20.9569 3.44362 1.78396
LeftFoot  -5.23995 0.750454 -13.4369
LeftToes  1.24767e-006 1.47042e-008 1.32732e-009
302
root  0.560918 40.4096 26.504 6.50056 -59.0145 1.02531
RightUpLeg  -8.06208 1.32975 -8.4573
RightLeg  26.5437 -9.2715 -5.22042
RightFoot  -6.55101 -0.304606 6.16334
RightToes  -2.08645e-008 3.77894e-005 6.81332e-007
Spine  -5.63807 1.52488 2.01481
Spine1  8.48128 1.88912 -1.72958
HEad  -30.8734 37.5661 -16.0509
LeftShoulder1  7.10079 -12.8685 -37.2923
LeftArm  4.05955 30.675 -31.1569
LeftForeArm  160.122 -69.571 -152.686
LeftHand  -0.323662 -2.82369 4.80819
RightShoulder  4.06871 6.82888 33.4905
RightArm  12.6394 -35.9864 25.3809
RightForeArm  140.637 77.4093 130.697
RightHand  -0.662025 7.87309 -6.15855
LeftUpLeg  -12.325 -4.1732 9.29515
LeftLeg  16.1236 -0.258293 0.514332
LeftFoot  0.165309 1.37467 -13.6054
LeftToes  1.24767e-006 1.47042e-008 1.32732e-009
